<svg width="150" height="27" viewBox="0 0 150 27" fill="none" xmlns="http://www.w3.org/2000/svg">
<path d="M2.68405 15.5995L0 12.9996L13.4203 0L16.1043 2.59992L2.68405 15.5995Z" fill="url(#paint0_linear_6578_9093)"/>
<path d="M24.1566 15.5995L10.7363 2.59992L13.4204 0L26.8406 12.9996L24.1566 15.5995Z" fill="url(#paint1_linear_6578_9093)"/>
<path d="M13.4213 26.0012L5.36914 18.2015L8.05319 15.6016L16.1054 23.4013L13.4213 26.0012Z" fill="url(#paint2_linear_6578_9093)"/>
<path d="M8.05319 20.7981L5.36914 18.1982L13.4213 10.3984L16.1054 12.9984L8.05319 20.7981Z" fill="url(#paint3_linear_6578_9093)"/>
<path d="M13.4204 25.998L10.7363 23.398L24.1566 10.3984L26.8406 12.9984L13.4204 25.998Z" fill="url(#paint4_linear_6578_9093)"/>
<path d="M38.4449 18.4829H35.3614V9.17158H31.7598V6.84375H42.0403V9.17158H38.4387V18.4829H38.4449Z" fill="#4421A5"/>
<path d="M51.8848 15.9858C51.8848 16.8201 51.6413 17.4671 51.1544 17.9387C50.6676 18.4103 49.9997 18.6461 49.1383 18.6461H45.1996C44.3444 18.6461 43.6703 18.4103 43.1834 17.9387C42.6966 17.4671 42.4531 16.8141 42.4531 15.9858V12.1584C42.4531 11.324 42.6966 10.6771 43.1834 10.2055C43.6703 9.73385 44.3382 9.49805 45.1996 9.49805H49.1383C49.9934 9.49805 50.6676 9.73385 51.1544 10.2055C51.6413 10.6771 51.8848 11.3301 51.8848 12.1584V15.9858ZM48.8886 12.4124C48.8886 11.971 48.6577 11.7473 48.202 11.7473H46.1484C45.6927 11.7473 45.4618 11.971 45.4618 12.4124V15.7379C45.4618 16.1792 45.6927 16.4029 46.1484 16.4029H48.202C48.6577 16.4029 48.8886 16.1792 48.8886 15.7379V12.4124Z" fill="#4421A5"/>
<path d="M56.8477 14.9883V18.4831H53.8516V6.83789H56.8477V12.7391H58.221L60.106 9.66152H63.277L60.7053 13.906L63.277 18.4771H60.106L58.1336 14.9823H56.8477V14.9883Z" fill="#4421A5"/>
<path d="M72.7773 18.3136C70.5739 18.5373 68.5702 18.6461 66.7787 18.6461C66.0047 18.6461 65.3805 18.4164 64.9124 17.9629C64.4442 17.5094 64.207 16.9048 64.207 16.149V12.1584C64.207 11.324 64.4505 10.6771 64.9373 10.2055C65.4242 9.73385 66.0921 9.49805 66.9535 9.49805H70.3804C71.2355 9.49805 71.9096 9.73385 72.3965 10.2055C72.8834 10.6771 73.1268 11.3301 73.1268 12.1584V15.236H67.2157V15.9011C67.2157 16.0644 67.2718 16.2034 67.3842 16.3183C67.4966 16.4271 67.6401 16.4816 67.8149 16.4816C68.9447 16.4816 70.6051 16.3969 72.7835 16.2337V18.3136H72.7773ZM67.8898 11.578C67.4341 11.578 67.2032 11.8017 67.2032 12.2431V13.1561H70.1182V12.2431C70.1182 11.8017 69.8872 11.578 69.4316 11.578H67.8898Z" fill="#4421A5"/>
<path d="M80.1298 11.9103C79.5244 11.9103 78.8378 12.0192 78.0762 12.2429V18.4767H75.0801V9.66716H77.7392L77.9077 10.5016C78.4445 10.1569 78.9938 9.90296 79.5618 9.74576C80.1298 9.58251 80.6042 9.50391 80.9912 9.50391H81.7652C82.5393 9.50391 83.1634 9.73367 83.6316 10.1871C84.0997 10.6406 84.3369 11.2452 84.3369 12.001V18.4887H81.3408V12.5029C81.3408 12.3336 81.2846 12.2006 81.1722 12.0857C81.0599 11.9769 80.9163 11.9164 80.7416 11.9164H80.1298V11.9103Z" fill="#4421A5"/>
<path d="M92.1202 18.4829H85.9531V16.1551H87.4949V9.17158H85.9531V6.84375H92.1202V9.17158H90.5784V16.1551H92.1202V18.4829Z" fill="#4421A5"/>
<path d="M98.9599 11.9103C98.3544 11.9103 97.6678 12.0192 96.9063 12.2429V18.4767H93.9102V9.66716H96.5692L96.7378 10.5016C97.2746 10.1569 97.8239 9.90296 98.3919 9.74576C98.9599 9.58251 99.4343 9.50391 99.8213 9.50391H100.595C101.369 9.50391 101.994 9.73367 102.462 10.1871C102.93 10.6406 103.167 11.2452 103.167 12.001V18.4887H100.171V12.5029C100.171 12.3336 100.115 12.2006 100.002 12.0857C99.89 11.9769 99.7464 11.9164 99.5716 11.9164H98.9599V11.9103Z" fill="#4421A5"/>
<path d="M104.78 16.1557C107.102 16.325 108.925 16.4036 110.267 16.4036C110.435 16.4036 110.579 16.3492 110.697 16.2403C110.81 16.1315 110.866 15.9924 110.866 15.8231V15.2427H107.183C106.403 15.2427 105.785 15.0129 105.317 14.5594C104.849 14.106 104.611 13.5013 104.611 12.7455V12.1651C104.611 11.4093 104.842 10.8047 105.317 10.3512C105.785 9.89773 106.409 9.66797 107.183 9.66797H113.007V11.8326H108.207C108.038 11.8326 107.895 11.887 107.776 11.9958C107.664 12.1046 107.607 12.2437 107.607 12.413C107.607 12.5823 107.664 12.7153 107.776 12.8302C107.888 12.939 108.032 12.9995 108.207 12.9995H111.29C112.064 12.9995 112.688 13.2293 113.157 13.6827C113.625 14.1362 113.862 14.7408 113.862 15.4966V16.1617C113.862 16.9175 113.625 17.5221 113.157 17.9756C112.688 18.4291 112.064 18.6589 111.29 18.6589C109.268 18.6589 107.096 18.55 104.78 18.3263V16.1557Z" fill="#4421A5"/>
<path d="M119.077 9.99931V18.4823H116.081V12.2425H114.795V9.99931H119.077ZM116.075 6.67383H119.071V9.00166H116.075V6.67383Z" fill="#4421A5"/>
<path d="M127.125 17.8184C126.014 18.0421 125.046 18.151 124.21 18.151H123.611C122.837 18.151 122.213 17.9212 121.744 17.4677C121.276 17.0143 121.039 16.4096 121.039 15.6538V12.3284C121.039 11.494 121.282 10.847 121.769 10.3754C122.256 9.90378 122.924 9.66797 123.786 9.66797H130.127V18.9793C130.127 19.7351 129.89 20.3397 129.422 20.7932C128.954 21.2467 128.33 21.4764 127.556 21.4764C125.764 21.4764 123.761 21.3676 121.557 21.1439V18.9793C123.742 19.1486 125.396 19.2272 126.526 19.2272C126.694 19.2272 126.838 19.1728 126.956 19.0579C127.069 18.9491 127.125 18.81 127.125 18.6407V17.8184V17.8184ZM125.065 15.9078C125.783 15.9078 126.47 15.8534 127.119 15.7385V11.9112H124.722C124.266 11.9112 124.035 12.1349 124.035 12.5763V15.3213C124.035 15.4906 124.091 15.6236 124.204 15.7385C124.316 15.8473 124.46 15.9078 124.634 15.9078H125.065V15.9078Z" fill="#4421A5"/>
<path d="M135.252 9.83687C136.363 9.61315 137.33 9.50432 138.167 9.50432H138.941C139.715 9.50432 140.339 9.73408 140.807 10.1876C141.275 10.641 141.512 11.2457 141.512 12.0015V18.4892H138.516V12.328C138.516 12.1647 138.46 12.0256 138.348 11.9108C138.235 11.8019 138.092 11.7475 137.917 11.7475H137.318C136.881 11.7475 136.488 11.7717 136.126 11.814C135.763 11.8563 135.476 11.8926 135.258 11.9168V18.4831H132.262V6.83789H135.258V9.83687H135.252Z" fill="#4421A5"/>
<path d="M149.809 18.4808C148.698 18.5896 147.618 18.644 146.551 18.644C145.777 18.644 145.153 18.4142 144.684 17.9608C144.216 17.5073 143.979 16.9027 143.979 16.1469V11.9084H142.949V9.66521H143.979L144.322 7.66992H146.982V9.66521H149.123V11.9084H146.982V15.7357C146.982 15.905 147.038 16.038 147.15 16.1529C147.262 16.2617 147.406 16.3222 147.581 16.3222H149.809V18.4808Z" fill="#4421A5"/>
<defs>
<linearGradient id="paint0_linear_6578_9093" x1="1.34203" y1="14.2996" x2="14.335" y2="0.886096" gradientUnits="userSpaceOnUse">
<stop stop-color="#4421A5"/>
<stop offset="1" stop-color="#4421A5" stop-opacity="0"/>
</linearGradient>
<linearGradient id="paint1_linear_6578_9093" x1="10.7363" y1="7.79976" x2="26.8406" y2="7.79976" gradientUnits="userSpaceOnUse">
<stop stop-color="#4421A5"/>
<stop offset="1" stop-color="#4421A5" stop-opacity="0"/>
</linearGradient>
<linearGradient id="paint2_linear_6578_9093" x1="10.7372" y1="26.0012" x2="10.7372" y2="15.6016" gradientUnits="userSpaceOnUse">
<stop stop-color="#4421A5"/>
<stop offset="1" stop-color="#4421A5" stop-opacity="0"/>
</linearGradient>
<linearGradient id="paint3_linear_6578_9093" x1="10.7372" y1="20.7981" x2="10.7372" y2="10.3984" gradientUnits="userSpaceOnUse">
<stop stop-color="#4421A5"/>
<stop offset="1" stop-color="#4421A5" stop-opacity="0.46"/>
</linearGradient>
<linearGradient id="paint4_linear_6578_9093" x1="18.7885" y1="10.3984" x2="18.7885" y2="25.998" gradientUnits="userSpaceOnUse">
<stop stop-color="#4421A5"/>
<stop offset="1" stop-color="#4421A5" stop-opacity="0"/>
</linearGradient>
</defs>
</svg>
